<svg width="25" height="25" fill="none" xmlns="http://www.w3.org/2000/svg"><path d="M4.5 2A2.508 2.508 0 0 0 2 4.5v16C2 21.875 3.125 23 4.5 23h16c1.375 0 2.5-1.125 2.5-2.5v-16C23 3.125 21.875 2 20.5 2h-16zm0 1h16c.834 0 1.5.666 1.5 1.5v16c0 .834-.666 1.5-1.5 1.5h-16c-.834 0-1.5-.666-1.5-1.5v-16C3 3.666 3.666 3 4.5 3zm7.198 4.996c-.529-.001-1 .028-1.422.235v.001c-.206.102-.351.23-.466.383-.058.077-.117.145-.149.32a.534.534 0 0 0 .067.38c.09.153.274.24.391.255a.861.861 0 0 1 .283.115s.072.186.092.351c.02.166.02.3.02.3v.04s.03.434.01.882a3.79 3.79 0 0 1-.054.48c-.178-.197-.44-.553-.82-1.21-.42-.728-.754-1.382-.754-1.382-.018-.056-.08-.233-.323-.412a1.202 1.202 0 0 0-.521-.224.5.5 0 0 0-.098-.01l-1.97.001s-.119-.007-.26.013c-.142.02-.355.035-.56.279l-.002.001a.726.726 0 0 0-.15.6c.022.137.072.24.072.24l.003.007s1.612 3.389 3.434 5.384c1.322 1.45 2.68 1.474 3.8 1.474h.836c.214 0 .407-.008.62-.133.214-.124.358-.427.358-.637 0-.22.033-.394.073-.483.028-.063.05-.085.086-.103l.023.016c.084.059.221.192.37.359.3.332.639.789 1.094 1.102.327.225.635.324.87.36.146.023.26.019.341.012L18.86 17l.034-.001s.321.004.656-.196a.92.92 0 0 0 .428-.567c.065-.276-.016-.563-.173-.825a4.123 4.123 0 0 0-.32-.484c-.223-.292-.58-.699-1.156-1.236-.293-.272-.491-.465-.572-.572-.081-.107-.055-.05-.049-.078.011-.055.363-.561 1.077-1.516.435-.58.74-1.017.94-1.38.202-.362.347-.676.246-1.061l-.001-.002a.757.757 0 0 0-.293-.41.91.91 0 0 0-.352-.138c-.213-.041-.4-.034-.572-.034-.362 0-1.97.013-2.103.013a1.31 1.31 0 0 0-.529.14.876.876 0 0 0-.385.429s-.331.735-.758 1.462c-.433.737-.753 1.088-.946 1.25-.005-.028-.004-.005-.008-.045-.017-.206.002-.49.002-.768 0-.747.064-1.27.03-1.732-.017-.231-.06-.47-.212-.688-.152-.22-.405-.362-.655-.422-.15-.037-.322-.13-.94-.137h-.002c-.19-.002-.372-.006-.548-.006zm.538 1.006c.548.006.412.036.716.11.095.022.072.022.07.019-.003-.003.025.048.036.192.02.288-.033.86-.033 1.658 0 .218-.026.528.001.852.028.324.108.739.495.99a.73.73 0 0 0 .578.08c.182-.045.347-.14.52-.278.347-.278.734-.746 1.22-1.574.454-.773.785-1.509.796-1.533l.007-.005h.007c.187 0 1.765-.013 2.103-.013.079 0 .108.005.17.007-.017.056.002.02-.072.154-.156.28-.443.698-.867 1.265-.696.93-1.128 1.295-1.256 1.913-.063.309.056.651.231.883.175.231.396.43.689.702.542.505.86.872 1.043 1.11.09.12.148.206.184.264.036.058.027.052.073.129.03.05.02.02.025.035l-.137.038-1.839-.008a.494.494 0 0 0-.098.01s.004.005-.094-.01a1.094 1.094 0 0 1-.456-.196c-.243-.167-.583-.575-.916-.946a3.24 3.24 0 0 0-.54-.51c-.206-.144-.515-.28-.848-.176a1.255 1.255 0 0 0-.747.669c-.098.216-.106.442-.121.666h-.855c-1.136 0-1.942.079-3.062-1.148C7.752 12.7 6.372 9.954 6.146 9.5L7.881 9.5c.03.012.096.036.1.04l.001.001c-.063-.046.003.019.003.019l.02.044s.345.67.78 1.424c.426.739.736 1.2 1.036 1.505.15.153.302.275.504.344a.853.853 0 0 0 .64-.053c.36-.196.407-.486.466-.74a4.37 4.37 0 0 0 .092-.783c.022-.502-.008-.937-.01-.964 0-.01.002-.19-.027-.423-.03-.238-.062-.528-.277-.821l-.001-.001-.005-.004c.285-.04.528-.091 1.033-.086zm4.412.49-.007.016h-.002a.696.696 0 0 1 .009-.016z" fill="#fff"/></svg>