<svg width="25" height="25" fill="none" xmlns="http://www.w3.org/2000/svg"><path d="M4.5 2A2.508 2.508 0 002 4.5v16C2 21.875 3.125 23 4.5 23h8.416c.054.009.11.009.163 0h2.837c.054.009.11.009.163 0H20.5c1.375 0 2.5-1.125 2.5-2.5v-16C23 3.125 21.875 2 20.5 2h-16zm0 1h16c.834 0 1.5.666 1.5 1.5v16c0 .834-.666 1.5-1.5 1.5h-4v-7h1.91l.7-3.5H16.5v-1c0-.279.026-.3.12-.361s.383-.139.88-.139H19V7.185l-.285-.136S17.566 6.5 16 6.5c-1.125 0-2.05.448-2.64 1.188-.592.739-.86 1.729-.86 2.812v1H11V15h1.5v7h-8c-.834 0-1.5-.666-1.5-1.5v-16C3 3.666 3.666 3 4.5 3zM16 7.5c1.04 0 1.694.23 2 .35V9h-.5c-.575 0-1.037.048-1.425.3-.388.252-.575.73-.575 1.2v2h2.39l-.3 1.5H15.5v8h-2v-8H12v-1.5h1.5v-2c0-.917.232-1.677.64-2.188.41-.51.985-.812 1.86-.812z" fill="#fff"/></svg>