<svg width="25" height="25" fill="none" xmlns="http://www.w3.org/2000/svg"><path d="M8 1.5A6.508 6.508 0 0 0 1.5 8v9c0 3.584 2.916 6.5 6.5 6.5h9c3.584 0 6.5-2.916 6.5-6.5V8c0-3.584-2.916-6.5-6.5-6.5H8zm0 1h9c3.043 0 5.5 2.457 5.5 5.5v9c0 3.043-2.457 5.5-5.5 5.5H8A5.493 5.493 0 0 1 2.5 17V8c0-3.043 2.457-5.5 5.5-5.5zm10.5 3a1 1 0 1 0 0 2 1 1 0 0 0 0-2zm-6 1.5A5.508 5.508 0 0 0 7 12.5c0 3.032 2.468 5.5 5.5 5.5s5.5-2.468 5.5-5.5S15.532 7 12.5 7zm0 1c2.491 0 4.5 2.009 4.5 4.5S14.991 17 12.5 17A4.492 4.492 0 0 1 8 12.5C8 10.009 10.009 8 12.5 8z" fill="#fff"/></svg>