<svg width="30" height="30" fill="none" xmlns="http://www.w3.org/2000/svg"><path d="M14.641 5.4c-3.96 0-7.68.3-9.66.72-1.32.3-2.461 1.2-2.7 2.58-.24 1.44-.481 3.6-.481 6.3 0 2.7.24 4.8.54 6.3.24 1.32 1.38 2.28 2.7 2.58 2.101.42 5.7.72 9.66.72s7.559-.3 9.659-.72c1.321-.3 2.46-1.2 2.7-2.58.241-1.5.541-3.659.6-6.359 0-2.7-.3-4.86-.6-6.36-.24-1.32-1.379-2.281-2.7-2.581-2.1-.3-5.759-.6-9.718-.6zm0 1.2c4.32 0 7.798.359 9.478.659.9.241 1.62.841 1.74 1.621.36 1.92.6 3.961.6 6.061-.059 2.579-.359 4.679-.6 6.179-.179 1.139-1.379 1.5-1.74 1.621-2.16.42-5.76.718-9.36.718-3.6 0-7.259-.24-9.359-.718-.9-.241-1.62-.841-1.74-1.621C3.18 19.44 3 17.22 3 15c0-2.76.241-4.8.48-6.059C3.66 7.8 4.92 7.44 5.22 7.32c1.98-.42 5.64-.72 9.421-.72zM11.4 10.2v9.6l8.4-4.8-8.4-4.8zm1.2 2.041L17.4 15l-4.8 2.759V12.24z" fill="#fff"/></svg>