<svg width="118" height="177" fill="none" xmlns="http://www.w3.org/2000/svg"><g stroke="#fff"><path d="M.5.5h117v116.478H.5z"/><path d="M12.3 12.248h93.4v92.982H12.3z"/><path transform="scale(1.00221 .99778) rotate(-45 82.445 4.997)" d="M.709 0h53.945v53.945H.709z"/><path transform="scale(1.00221 .99778) rotate(-45 90.485 -14.984)" d="M.709 0h30.397v30.397H.709z"/></g><path d="M17.834 161.551c-.24 0-.44-.34-.6-1.02-.093-.48-.18-1.186-.26-2.12-.027-.24-.053-.573-.08-1l-.08-.72-.06-.28a34.598 34.598 0 00-2.68-.16c-.613 0-1.52-.013-2.72-.04-1.72 2.587-3.34 4.234-4.86 4.94-.507.254-.907.38-1.2.38-.347 0-.52-.166-.52-.5 0-.16.06-.3.18-.42.12-.133.24-.2.36-.2s.22.054.3.16l.02-.02c1.4-.533 2.713-1.626 3.94-3.28l.46-.62a2.7 2.7 0 00.34-.46 92.55 92.55 0 01-2.26-.16c-.187-.066-.28-.173-.28-.32 0-.133.053-.26.16-.38a.753.753 0 01.4-.22c.333.054 1.2.114 2.6.18 1.28-1.92 2.6-4.193 3.96-6.82 1.36-2.64 2.193-4.653 2.5-6.04a.81.81 0 01.26-.34.567.567 0 01.34-.14c.173 0 .267.1.28.3.093.094.14.207.14.34 0 .134-.04.24-.12.32-.16.6-.267 1.147-.32 1.64-.093.894-.22 1.96-.38 3.2-.187 1.614-.28 2.927-.28 3.94 0 1.054.08 2.34.24 3.86.787.094 1.22.18 1.3.26.067.107.1.207.1.3 0 .12-.067.24-.2.36a.484.484 0 01-.38.14l-.36-.04a1.78 1.78 0 00-.32-.04v.1c0 .094.013.194.04.3.013.107.02.22.02.34 0 .107.007.22.02.34 0 .52.047 1.007.14 1.46.04.227.12.574.24 1.04.093.427.14.727.14.9 0 .134-.053.26-.16.38a.496.496 0 01-.36.16zm-1.18-6.1c-.107-.92-.16-2.1-.16-3.54 0-1.506.14-3.32.42-5.44a75.944 75.944 0 01-2.5 4.76c-.947 1.667-1.76 3.027-2.44 4.08l2.36.02c.787.027 1.56.067 2.32.12zm10.303-3.02c-.267.147-.7.54-1.3 1.18-.587.627-1.04 1.16-1.36 1.6.12 1.254.373 2.36.76 3.32s.807 1.614 1.26 1.96c.24.174.467.26.68.26.227 0 .407-.06.54-.18.147-.12.26-.313.34-.58.107-.266.193-.406.26-.42.04-.026.113-.04.22-.04.08 0 .173.047.28.14.093.094.14.267.14.52a.945.945 0 01-.02.22 13.557 13.557 0 01-.58 3.32c-.333 1.094-.807 2-1.42 2.72-.613.72-1.347 1.08-2.2 1.08-.933 0-1.673-.64-2.22-1.92a.702.702 0 01-.06-.28c0-.146.053-.266.16-.36a.534.534 0 01.36-.14c.173 0 .287.067.34.2.267.56.513.96.74 1.2.24.254.547.38.92.38.52 0 1.007-.28 1.46-.84.467-.56.847-1.253 1.14-2.08.293-.813.473-1.573.54-2.28-.293.187-.567.28-.82.28-1.28 0-2.273-1.053-2.98-3.16-.307-.88-.5-1.633-.58-2.26-.04.054-.187.307-.44.76l-.24.44c-.213 1.16-.42 2.38-.62 3.66a.563.563 0 01-.2.38c-.12.12-.24.18-.36.18-.213 0-.333-.14-.36-.42l.22-1.26c.133-.853.293-1.78.48-2.78l.12-.72c.293-1.693.473-2.68.54-2.96.147-.68.247-1.253.3-1.72a.723.723 0 01.22-.34c.12-.093.24-.14.36-.14.16 0 .273.114.34.34a3.7 3.7 0 01-.08.72c-.053.174-.12.54-.2 1.1l-.34 1.78c1.493-2.08 2.76-3.366 3.8-3.86.24-.12.48-.18.72-.18.227 0 .473.167.74.5.28.334.42.627.42.88 0 .214-.053.38-.16.5a.493.493 0 01-.38.18c-.2 0-.38-.186-.54-.56l-.1-.2a.673.673 0 00-.14-.26c-.04-.066-.087-.1-.14-.1-.093 0-.28.08-.56.24zm3.597.1a.66.66 0 01-.42-.14c-.106-.093-.16-.193-.16-.3 0-.093.047-.173.14-.24 1.12-.48 2.52-.72 4.2-.72.72 0 1.314.027 1.78.08.454.067.847.114 1.18.14.28.04.447.087.5.14.054.067.08.16.08.28 0 .12-.066.24-.2.36a.773.773 0 01-.5.16c-.226 0-.606-.06-1.14-.18a8.615 8.615 0 00-1.6-.16c-1.36 0-2.593.187-3.7.56l-.08.02h-.08zm1.04 9.26c-.226 0-.34-.133-.34-.4a.61.61 0 01.14-.38c.12-.32.24-.753.36-1.3.16-.68.267-1.1.32-1.26l.2-1.02.22-1.28c.227-1.306.44-2.246.64-2.82.214-.573.5-.86.86-.86.134 0 .24.087.32.26l.26.68c0 .28-.1.494-.3.64a.324.324 0 01-.2.06c-.08 0-.153-.04-.22-.12-.306 1.134-.493 1.96-.56 2.48a48.312 48.312 0 01-.34 2 6.24 6.24 0 00-.18.64l-.18.66c-.346 1.347-.68 2.02-1 2.02zm10.154-10.4c1.227 0 1.84.934 1.84 2.8 0 .934-.153 1.887-.46 2.86-.306.974-.706 1.84-1.2 2.6-.48.76-.98 1.307-1.5 1.64-.4.254-.8.38-1.2.38-.693 0-1.213-.273-1.56-.82-.333-.546-.5-1.2-.5-1.96 0-.853.1-1.686.3-2.5 0-.08.02-.16.06-.24.4-1.493 1.04-2.7 1.92-3.62.68-.76 1.447-1.14 2.3-1.14zm-1.02 1.24c-.613.387-1.146 1.054-1.6 2-.266.547-.46 1-.58 1.36.694.08 1.3.12 1.82.12.174 0 .634-.013 1.38-.04l.62-.04c.16-.666.24-1.246.24-1.74 0-.773-.046-1.253-.14-1.44-.08-.2-.18-.34-.3-.42-.12-.08-.306-.12-.56-.12-.28 0-.573.107-.88.32zm-1.34 8.14c.414 0 .874-.36 1.38-1.08.52-.72.954-1.613 1.3-2.68l.02-.04c-.426.04-1.02.06-1.78.06l-1.58-.02a3.637 3.637 0 01-.46-.06 8.097 8.097 0 00-.2 1.8c0 .907.26 1.534.78 1.88.187.094.367.14.54.14zm7.418.96c-1.227 0-1.84-.753-1.84-2.26 0-1.146.12-2.246.36-3.3.253-1.066.58-1.993.98-2.78.413-.786.86-1.353 1.34-1.7.373-.266.72-.4 1.04-.4.613 0 1.046.127 1.3.38a7.499 7.499 0 00-.64-1.44c-.307-.506-.56-.966-.76-1.38-.614-1.133-.92-2.226-.92-3.28 0-.68.133-1.28.4-1.8a3.17 3.17 0 011.12-1.24c.466-.306.993-.46 1.58-.46.533 0 1.02.074 1.46.22.56.16.973.267 1.24.32.28.054.613.08 1 .08.666 0 1.193-.073 1.58-.22l.42-.14c.106-.04.24-.06.4-.06.24 0 .36.1.36.3 0 .294-.247.54-.74.74-.494.2-1.034.3-1.62.3-.494 0-.874-.02-1.14-.06-.267-.053-.74-.173-1.42-.36a7.592 7.592 0 00-1.84-.22c-.6 0-1.06.26-1.38.78-.32.52-.48 1.134-.48 1.84 0 .64.086 1.214.26 1.72.173.494.52 1.18 1.04 2.06.853 1.414 1.28 2.64 1.28 3.68l-.1.9v.04c0 1.04-.154 2.067-.46 3.08-.294 1.014-.68 1.9-1.16 2.66-.467.76-.954 1.307-1.46 1.64a2.18 2.18 0 01-1.2.36zm-.02-.98c.346 0 .666-.113.96-.34.293-.24.573-.58.84-1.02.466-.813.846-1.78 1.14-2.9.293-1.066.44-2.006.44-2.82 0-.44-.114-.773-.34-1-.227-.226-.527-.34-.9-.34-.347 0-.64.1-.88.3-.227.2-.507.56-.84 1.08-.334.534-.647 1.314-.94 2.34-.28 1.014-.42 1.874-.42 2.58 0 .747.066 1.287.2 1.62.133.334.38.5.74.5zm8.692.94c-.426 0-.76-.066-1-.2a1.562 1.562 0 01-.58-.66c-.28-.52-.42-1.146-.42-1.88 0-1.28.194-2.493.58-3.64.387-1.16.914-2.133 1.58-2.92.64-.746 1.34-1.12 2.1-1.12.4 0 .714.167.94.5.24.32.36.714.36 1.18 0 .814-.213 1.52-.64 2.12-.413.6-.973 1.1-1.68 1.5-.613.36-1.36.72-2.24 1.08l-.04 1.44c0 1.12.34 1.68 1.02 1.68.307 0 .627-.073.96-.22.334-.16.68-.346 1.04-.56.174-.093.314-.14.42-.14.227 0 .34.12.34.36 0 .174-.166.38-.5.62-.32.24-.7.447-1.14.62-.44.16-.806.24-1.1.24zm-.84-5c.12-.066.387-.206.8-.42.187-.08.454-.213.8-.4.627-.346 1.094-.746 1.4-1.2.32-.453.48-1.013.48-1.68 0-.52-.22-.78-.66-.78-.386 0-.84.354-1.36 1.06-.546.707-.986 1.634-1.32 2.78-.093.32-.14.534-.14.64zm11.18 5c-.213 0-.333-.14-.36-.42l.22-1.26c.133-.853.293-1.78.48-2.78l.12-.72c.293-1.693.473-2.68.54-2.96.147-.68.247-1.253.3-1.72a.723.723 0 01.22-.34c.12-.093.24-.14.36-.14.16 0 .273.114.34.34 0 .214-.027.454-.08.72-.053.174-.12.54-.2 1.1l-.34 1.78c1.493-2.08 2.76-3.366 3.8-3.86.24-.12.48-.18.72-.18.227 0 .473.167.74.5.28.334.42.627.42.88 0 .214-.053.38-.16.5a.492.492 0 01-.38.18c-.2 0-.38-.186-.54-.56l-.1-.2a.671.671 0 00-.14-.26c-.04-.066-.087-.1-.14-.1-.093 0-.28.08-.56.24-.267.147-.7.54-1.3 1.18-.587.627-1.04 1.16-1.36 1.6.12 1.254.373 2.36.76 3.32s.807 1.614 1.26 1.96c.24.174.467.26.68.26.227 0 .407-.06.54-.18.147-.12.26-.313.34-.58.107-.266.193-.406.26-.42.04-.026.113-.04.22-.04.08 0 .173.047.28.14.093.094.14.267.14.52 0 .267-.113.52-.34.76-.44.494-.88.74-1.32.74-1.28 0-2.273-1.053-2.98-3.16-.307-.88-.5-1.633-.58-2.26-.04.054-.187.307-.44.76l-.24.44c-.213 1.16-.42 2.38-.62 3.66a.562.562 0 01-.2.38c-.12.12-.24.18-.36.18zm11.34-12.08a.748.748 0 01-.52-.18.611.611 0 01-.2-.44c0-.266.107-.493.32-.68.2-.173.42-.26.66-.26.107 0 .253.047.44.14.08.094.12.247.12.46 0 .64-.273.96-.82.96zm-2.2 12.08c-.453 0-.68-.366-.68-1.1 0-.186.033-.353.1-.5.067-.226.127-.486.18-.78l.3-1.34.4-1.76c.133-.653.294-1.386.48-2.2a2.55 2.55 0 00.08-.4c.133-.573.2-.906.2-1v-.2c0-.106-.046-.326-.14-.66a.69.69 0 01.16-.44.55.55 0 01.42-.2c.147 0 .273.1.38.3.107.2.16.42.16.66 0 .267-.306 1.707-.92 4.32-.613 2.614-.92 4-.92 4.16 0 .147.067.22.2.22.067 0 .187-.086.36-.26.16-.16.293-.24.4-.24.214 0 .32.134.32.4 0 .16-.093.32-.28.48-.186.16-.4.287-.64.38-.24.107-.427.16-.56.16zm10.058.02c-.374 0-.66-.1-.86-.3-.187-.2-.28-.46-.28-.78 0-.333.086-.906.26-1.72l.46-2.42c-.974.734-1.874 1.1-2.7 1.1-.6 0-1.06-.16-1.38-.48l-.08.4a4.072 4.072 0 01-.06.4c-.054.44-.12.887-.2 1.34-.24 1.587-.6 2.38-1.08 2.38-.2 0-.32-.14-.36-.42.12-1.04.413-2.653.88-4.84.48-2.2.82-3.686 1.02-4.46a.723.723 0 01.22-.34c.12-.093.24-.14.36-.14.16 0 .273.114.34.34 0 .214-.12.907-.36 2.08a59.02 59.02 0 00-.44 2.3c.293.334.753.5 1.38.5.613 0 1.286-.306 2.02-.92.226-.2.44-.413.64-.64l.3-1.34c.226-.973.473-1.646.74-2.02.133-.213.313-.32.54-.32.226 0 .34.127.34.38v.1c-.734 2.52-1.194 4.347-1.38 5.48-.174.974-.287 1.74-.34 2.3-.04.44-.067.68-.08.72l-.02.26c0 .08.033.12.1.12.053 0 .1-.02.14-.06.066-.04.173-.06.32-.06.226 0 .34.12.34.36 0 .467-.26.7-.78.7zm4.33 7.98c-.64 0-1.18-.22-1.62-.66-.426-.426-.64-.973-.64-1.64 0-.613.14-1.2.42-1.76.294-.546.714-1.113 1.26-1.7a18.063 18.063 0 011.68-1.58l1.88-1.56c.094-.333.174-.686.24-1.06.147-.586.26-1.066.34-1.44-.506 1.587-1.16 2.627-1.96 3.12-.253.16-.5.24-.74.24-.466 0-.853-.186-1.16-.56-.293-.373-.44-.866-.44-1.48 0-1.16.22-2.373.66-3.64.44-1.28 1.027-2.373 1.76-3.28.76-.92 1.587-1.38 2.48-1.38.427 0 .834.107 1.22.32.08-.04.167-.06.26-.06.227 0 .34.107.34.32 0 .227-.04.44-.12.64-.373.974-1 3.507-1.88 7.6.214-.133.46-.326.74-.58.067-.053.187-.153.36-.3.174-.16.314-.273.42-.34.107-.066.2-.1.28-.1.227 0 .34.114.34.34 0 .174-.046.307-.14.4a75.889 75.889 0 01-2.12 1.56l-.32 1.88-.1.5c-.16.84-.3 1.54-.42 2.1-.12.574-.266 1.12-.44 1.64-.253.734-.6 1.327-1.04 1.78-.426.454-.94.68-1.54.68zm.92-9c.267 0 .574-.18.92-.54.347-.373.68-.853 1-1.44.334-.6.6-1.226.8-1.88.307-.946.567-1.82.78-2.62.134-.466.3-1.08.5-1.84-.186-.173-.44-.26-.76-.26-.573 0-1.173.38-1.8 1.14-.613.76-1.133 1.72-1.56 2.88-.413 1.147-.62 2.194-.62 3.14 0 .947.247 1.42.74 1.42zm-1.1 8c.28 0 .534-.066.76-.2.227-.12.44-.333.64-.64.2-.32.4-.766.6-1.34.2-.573.36-1.16.48-1.76.107-.453.194-.866.26-1.24l.08-.44c.014-.106.034-.22.06-.34a3.2 3.2 0 00.06-.38l.06-.48c-1.306 1.08-2.32 2.06-3.04 2.94-.706.88-1.06 1.667-1.06 2.36 0 .734.16 1.2.48 1.4.134.08.34.12.62.12zm11-19.08a.748.748 0 01-.52-.18.611.611 0 01-.2-.44c0-.266.107-.493.32-.68.2-.173.42-.26.66-.26.107 0 .253.047.44.14.08.094.12.247.12.46 0 .64-.273.96-.82.96zm-2.2 12.08c-.453 0-.68-.366-.68-1.1 0-.186.033-.353.1-.5.067-.226.127-.486.18-.78l.3-1.34.4-1.76c.133-.653.293-1.386.48-2.2a2.55 2.55 0 00.08-.4c.133-.573.2-.906.2-1v-.2c0-.106-.047-.326-.14-.66a.69.69 0 01.16-.44.55.55 0 01.42-.2c.147 0 .273.1.38.3.107.2.16.42.16.66 0 .267-.307 1.707-.92 4.32-.613 2.614-.92 4-.92 4.16 0 .147.067.22.2.22.067 0 .187-.086.36-.26.16-.16.293-.24.4-.24.213 0 .32.134.32.4 0 .16-.093.32-.28.48-.187.16-.4.287-.64.38-.24.107-.427.16-.56.16zm5.477-.1c-.6 0-1.073-.186-1.42-.56a1.892 1.892 0 01-.5-1.3c0-.44.074-.866.22-1.28.147-.426.36-.873.64-1.34.254-.426.527-.833.82-1.22.4-.533.687-.933.86-1.2.627-.933.98-1.74 1.06-2.42a.565.565 0 00-.56-.36c-.28 0-.6.14-.96.42-.306.254-.473.454-.5.6-.013.12-.08.24-.2.36-.106.12-.206.18-.3.18-.266 0-.4-.12-.4-.36 0-.333.14-.66.42-.98.28-.333.627-.606 1.04-.82.414-.213.814-.32 1.2-.32.787 0 1.18.467 1.18 1.4 0 .76-.6 1.94-1.8 3.54-1.213 1.614-1.82 2.747-1.82 3.4 0 .467.1.807.3 1.02.2.2.44.3.72.3.254 0 .467-.046.64-.14.347-.173.754-.493 1.22-.96.48-.48.834-.72 1.06-.72.227 0 .34.114.34.34 0 .147-.053.28-.16.4-.613.694-1.14 1.207-1.58 1.54-.44.32-.946.48-1.52.48zm7.446-11.98a.746.746 0 01-.52-.18.608.608 0 01-.2-.44.87.87 0 01.32-.68c.2-.173.42-.26.66-.26.106 0 .253.047.44.14.08.094.12.247.12.46 0 .64-.274.96-.82.96zm-2.2 12.08c-.454 0-.68-.366-.68-1.1 0-.186.033-.353.1-.5.066-.226.126-.486.18-.78l.3-1.34.4-1.76c.133-.653.293-1.386.48-2.2.026-.08.053-.213.08-.4.133-.573.2-.906.2-1v-.2c0-.106-.047-.326-.14-.66 0-.16.053-.306.16-.44a.55.55 0 01.42-.2c.146 0 .273.1.38.3.106.2.16.42.16.66 0 .267-.307 1.707-.92 4.32-.614 2.614-.92 4-.92 4.16 0 .147.066.22.2.22.066 0 .186-.086.36-.26.16-.16.293-.24.4-.24.213 0 .32.134.32.4 0 .16-.094.32-.28.48-.187.16-.4.287-.64.38-.24.107-.427.16-.56.16z" fill="#fff"/><path d="M.787 145.186c48.814-29.238 98.162-21.592 116.735-14.114" stroke="#fff" stroke-linecap="round"/></svg>