<svg width="118" height="177" viewBox="0 0 118 177" fill="none" xmlns="http://www.w3.org/2000/svg">
<g id="Logo">
<g id="Logo_2">
<rect id="Rectangle 1" x="0.5" y="0.5" width="117" height="116.478" stroke="white"/>
<rect id="Rectangle 2" x="12.3" y="12.2478" width="93.4" height="92.9823" stroke="white"/>
<rect id="Rectangle 3" x="0.708673" width="53.945" height="53.945" transform="matrix(0.708673 -0.705537 0.708673 0.705537 20.6598 59.6285)" stroke="white"/>
<rect id="Rectangle 4" x="0.708673" width="30.3971" height="30.3971" transform="matrix(0.708673 -0.705537 0.708673 0.705537 37.1798 59.4616)" stroke="white"/>
</g>
<path id="&#208;&#144;&#210;&#155;&#209;&#130;&#211;&#169;&#208;&#177;&#208;&#181; &#208;&#186;&#209;&#150;&#208;&#189;&#208;&#180;&#209;&#150;&#208;&#179;&#209;&#150;" d="M17.834 161.551C17.594 161.551 17.394 161.211 17.234 160.531C17.1407 160.051 17.054 159.345 16.974 158.411C16.9473 158.171 16.9207 157.838 16.894 157.411L16.814 156.691L16.754 156.411C15.7807 156.318 14.8873 156.265 14.074 156.251C13.4607 156.251 12.554 156.238 11.354 156.211C9.63398 158.798 8.01398 160.445 6.49398 161.151C5.98732 161.405 5.58732 161.531 5.29398 161.531C4.94732 161.531 4.77398 161.365 4.77398 161.031C4.77398 160.871 4.83398 160.731 4.95398 160.611C5.07398 160.478 5.19398 160.411 5.31398 160.411C5.43398 160.411 5.53398 160.465 5.61398 160.571L5.63398 160.551C7.03398 160.018 8.34732 158.925 9.57398 157.271C9.61398 157.218 9.76732 157.011 10.034 156.651C10.1673 156.505 10.2807 156.351 10.374 156.191C9.68065 156.151 8.92732 156.098 8.11398 156.031C7.92732 155.965 7.83398 155.858 7.83398 155.711C7.83398 155.578 7.88732 155.451 7.99398 155.331C8.11398 155.211 8.24732 155.138 8.39398 155.111C8.72732 155.165 9.59398 155.225 10.994 155.291C12.274 153.371 13.594 151.098 14.954 148.471C16.314 145.831 17.1473 143.818 17.454 142.431C17.5073 142.298 17.594 142.185 17.714 142.091C17.834 141.998 17.9473 141.951 18.054 141.951C18.2273 141.951 18.3207 142.051 18.334 142.251C18.4273 142.345 18.474 142.458 18.474 142.591C18.474 142.725 18.434 142.831 18.354 142.911C18.194 143.511 18.0873 144.058 18.034 144.551C17.9407 145.445 17.814 146.511 17.654 147.751C17.4673 149.365 17.374 150.678 17.374 151.691C17.374 152.745 17.454 154.031 17.614 155.551C18.4007 155.645 18.834 155.731 18.914 155.811C18.9807 155.918 19.014 156.018 19.014 156.111C19.014 156.231 18.9473 156.351 18.814 156.471C18.694 156.578 18.5673 156.625 18.434 156.611L18.074 156.571C17.9407 156.545 17.834 156.531 17.754 156.531V156.631C17.754 156.725 17.7673 156.825 17.794 156.931C17.8073 157.038 17.814 157.151 17.814 157.271C17.814 157.378 17.8207 157.491 17.834 157.611C17.834 158.131 17.8807 158.618 17.974 159.071C18.014 159.298 18.094 159.645 18.214 160.111C18.3073 160.538 18.354 160.838 18.354 161.011C18.354 161.145 18.3007 161.271 18.194 161.391C18.0873 161.498 17.9673 161.551 17.834 161.551ZM16.654 155.451C16.5473 154.531 16.494 153.351 16.494 151.911C16.494 150.405 16.634 148.591 16.914 146.471C16.194 147.978 15.3607 149.565 14.414 151.231C13.4673 152.898 12.654 154.258 11.974 155.311L14.334 155.331C15.1207 155.358 15.894 155.398 16.654 155.451ZM26.957 152.431C26.6903 152.578 26.257 152.971 25.657 153.611C25.0703 154.238 24.617 154.771 24.297 155.211C24.417 156.465 24.6703 157.571 25.057 158.531C25.4436 159.491 25.8636 160.145 26.317 160.491C26.557 160.665 26.7836 160.751 26.997 160.751C27.2236 160.751 27.4036 160.691 27.537 160.571C27.6836 160.451 27.797 160.258 27.877 159.991C27.9836 159.725 28.0703 159.585 28.137 159.571C28.177 159.545 28.2503 159.531 28.357 159.531C28.437 159.531 28.5303 159.578 28.637 159.671C28.7303 159.765 28.777 159.938 28.777 160.191C28.777 160.285 28.7703 160.358 28.757 160.411C28.7036 161.531 28.5103 162.638 28.177 163.731C27.8436 164.825 27.3703 165.731 26.757 166.451C26.1436 167.171 25.4103 167.531 24.557 167.531C23.6236 167.531 22.8836 166.891 22.337 165.611C22.297 165.518 22.277 165.425 22.277 165.331C22.277 165.185 22.3303 165.065 22.437 164.971C22.5436 164.878 22.6636 164.831 22.797 164.831C22.9703 164.831 23.0836 164.898 23.137 165.031C23.4036 165.591 23.6503 165.991 23.877 166.231C24.117 166.485 24.4236 166.611 24.797 166.611C25.317 166.611 25.8036 166.331 26.257 165.771C26.7236 165.211 27.1036 164.518 27.397 163.691C27.6903 162.878 27.8703 162.118 27.937 161.411C27.6436 161.598 27.3703 161.691 27.117 161.691C25.837 161.691 24.8436 160.638 24.137 158.531C23.8303 157.651 23.637 156.898 23.557 156.271C23.517 156.325 23.3703 156.578 23.117 157.031L22.877 157.471C22.6636 158.631 22.457 159.851 22.257 161.131C22.2436 161.278 22.177 161.405 22.057 161.511C21.937 161.631 21.817 161.691 21.697 161.691C21.4836 161.691 21.3636 161.551 21.337 161.271L21.557 160.011C21.6903 159.158 21.8503 158.231 22.037 157.231L22.157 156.511C22.4503 154.818 22.6303 153.831 22.697 153.551C22.8436 152.871 22.9436 152.298 22.997 151.831C23.037 151.698 23.1103 151.585 23.217 151.491C23.337 151.398 23.457 151.351 23.577 151.351C23.737 151.351 23.8503 151.465 23.917 151.691C23.917 151.905 23.8903 152.145 23.837 152.411C23.7836 152.585 23.717 152.951 23.637 153.511L23.297 155.291C24.7903 153.211 26.057 151.925 27.097 151.431C27.337 151.311 27.577 151.251 27.817 151.251C28.0436 151.251 28.2903 151.418 28.557 151.751C28.837 152.085 28.977 152.378 28.977 152.631C28.977 152.845 28.9236 153.011 28.817 153.131C28.7103 153.251 28.5836 153.311 28.437 153.311C28.237 153.311 28.057 153.125 27.897 152.751C27.8836 152.725 27.8503 152.658 27.797 152.551C27.757 152.431 27.7103 152.345 27.657 152.291C27.617 152.225 27.5703 152.191 27.517 152.191C27.4236 152.191 27.237 152.271 26.957 152.431ZM30.5543 152.531C30.3943 152.531 30.2543 152.485 30.1343 152.391C30.0276 152.298 29.9743 152.198 29.9743 152.091C29.9743 151.998 30.021 151.918 30.1143 151.851C31.2343 151.371 32.6343 151.131 34.3143 151.131C35.0343 151.131 35.6276 151.158 36.0943 151.211C36.5476 151.278 36.941 151.325 37.2743 151.351C37.5543 151.391 37.721 151.438 37.7743 151.491C37.8276 151.558 37.8543 151.651 37.8543 151.771C37.8543 151.891 37.7876 152.011 37.6543 152.131C37.521 152.238 37.3543 152.291 37.1543 152.291C36.9276 152.291 36.5476 152.231 36.0143 152.111C35.4543 152.005 34.921 151.951 34.4143 151.951C33.0543 151.951 31.821 152.138 30.7143 152.511L30.6343 152.531H30.5543ZM31.5943 161.791C31.3676 161.791 31.2543 161.658 31.2543 161.391C31.2543 161.258 31.301 161.131 31.3943 161.011C31.5143 160.691 31.6343 160.258 31.7543 159.711C31.9143 159.031 32.021 158.611 32.0743 158.451L32.2743 157.431L32.4943 156.151C32.721 154.845 32.9343 153.905 33.1343 153.331C33.3476 152.758 33.6343 152.471 33.9943 152.471C34.1276 152.471 34.2343 152.558 34.3143 152.731L34.5743 153.411C34.5743 153.691 34.4743 153.905 34.2743 154.051C34.221 154.091 34.1543 154.111 34.0743 154.111C33.9943 154.111 33.921 154.071 33.8543 153.991C33.5476 155.125 33.361 155.951 33.2943 156.471C33.161 157.338 33.0476 158.005 32.9543 158.471C32.901 158.618 32.841 158.831 32.7743 159.111L32.5943 159.771C32.2476 161.118 31.9143 161.791 31.5943 161.791ZM41.7484 151.391C42.975 151.391 43.5884 152.325 43.5884 154.191C43.5884 155.125 43.435 156.078 43.1284 157.051C42.8217 158.025 42.4217 158.891 41.9284 159.651C41.4484 160.411 40.9484 160.958 40.4284 161.291C40.0284 161.545 39.6284 161.671 39.2284 161.671C38.535 161.671 38.015 161.398 37.6684 160.851C37.335 160.305 37.1684 159.651 37.1684 158.891C37.1684 158.038 37.2684 157.205 37.4684 156.391C37.4684 156.311 37.4884 156.231 37.5284 156.151C37.9284 154.658 38.5684 153.451 39.4484 152.531C40.1284 151.771 40.895 151.391 41.7484 151.391ZM40.7284 152.631C40.115 153.018 39.5817 153.685 39.1284 154.631C38.8617 155.178 38.6684 155.631 38.5484 155.991C39.2417 156.071 39.8484 156.111 40.3684 156.111C40.5417 156.111 41.0017 156.098 41.7484 156.071L42.3684 156.031C42.5284 155.365 42.6084 154.785 42.6084 154.291C42.6084 153.518 42.5617 153.038 42.4684 152.851C42.3884 152.651 42.2884 152.511 42.1684 152.431C42.0484 152.351 41.8617 152.311 41.6084 152.311C41.3284 152.311 41.035 152.418 40.7284 152.631ZM39.3884 160.771C39.8017 160.771 40.2617 160.411 40.7684 159.691C41.2884 158.971 41.7217 158.078 42.0684 157.011L42.0884 156.971C41.6617 157.011 41.0684 157.031 40.3084 157.031L38.7284 157.011C38.675 157.011 38.6017 157.005 38.5084 156.991C38.415 156.978 38.335 156.965 38.2684 156.951C38.135 157.538 38.0684 158.138 38.0684 158.751C38.0684 159.658 38.3284 160.285 38.8484 160.631C39.035 160.725 39.215 160.771 39.3884 160.771ZM46.8055 161.731C45.5789 161.731 44.9655 160.978 44.9655 159.471C44.9655 158.325 45.0855 157.225 45.3255 156.171C45.5789 155.105 45.9055 154.178 46.3055 153.391C46.7189 152.605 47.1655 152.038 47.6455 151.691C48.0189 151.425 48.3655 151.291 48.6855 151.291C49.2989 151.291 49.7322 151.418 49.9855 151.671C49.8389 151.205 49.6255 150.725 49.3455 150.231C49.0389 149.725 48.7855 149.265 48.5855 148.851C47.9722 147.718 47.6655 146.625 47.6655 145.571C47.6655 144.891 47.7989 144.291 48.0655 143.771C48.3455 143.238 48.7189 142.825 49.1855 142.531C49.6522 142.225 50.1789 142.071 50.7655 142.071C51.2989 142.071 51.7855 142.145 52.2255 142.291C52.7855 142.451 53.1989 142.558 53.4655 142.611C53.7455 142.665 54.0789 142.691 54.4655 142.691C55.1322 142.691 55.6589 142.618 56.0455 142.471C56.0455 142.471 56.1855 142.425 56.4655 142.331C56.5722 142.291 56.7055 142.271 56.8655 142.271C57.1055 142.271 57.2255 142.371 57.2255 142.571C57.2255 142.865 56.9789 143.111 56.4855 143.311C55.9922 143.511 55.4522 143.611 54.8655 143.611C54.3722 143.611 53.9922 143.591 53.7255 143.551C53.4589 143.498 52.9855 143.378 52.3055 143.191C51.7189 143.045 51.1055 142.971 50.4655 142.971C49.8655 142.971 49.4055 143.231 49.0855 143.751C48.7655 144.271 48.6055 144.885 48.6055 145.591C48.6055 146.231 48.6922 146.805 48.8655 147.311C49.0389 147.805 49.3855 148.491 49.9055 149.371C50.7589 150.785 51.1855 152.011 51.1855 153.051L51.0855 153.951V153.991C51.0855 155.031 50.9322 156.058 50.6255 157.071C50.3322 158.085 49.9455 158.971 49.4655 159.731C48.9989 160.491 48.5122 161.038 48.0055 161.371C47.6322 161.611 47.2322 161.731 46.8055 161.731ZM46.7855 160.751C47.1322 160.751 47.4522 160.638 47.7455 160.411C48.0389 160.171 48.3189 159.831 48.5855 159.391C49.0522 158.578 49.4322 157.611 49.7255 156.491C50.0189 155.425 50.1655 154.485 50.1655 153.671C50.1655 153.231 50.0522 152.898 49.8255 152.671C49.5989 152.445 49.2989 152.331 48.9255 152.331C48.5789 152.331 48.2855 152.431 48.0455 152.631C47.8189 152.831 47.5389 153.191 47.2055 153.711C46.8722 154.245 46.5589 155.025 46.2655 156.051C45.9855 157.065 45.8455 157.925 45.8455 158.631C45.8455 159.378 45.9122 159.918 46.0455 160.251C46.1789 160.585 46.4255 160.751 46.7855 160.751ZM55.4784 161.691C55.0517 161.691 54.7184 161.625 54.4784 161.491C54.2384 161.345 54.045 161.125 53.8984 160.831C53.6184 160.311 53.4784 159.685 53.4784 158.951C53.4784 157.671 53.6717 156.458 54.0584 155.311C54.445 154.151 54.9717 153.178 55.6384 152.391C56.2784 151.645 56.9784 151.271 57.7384 151.271C58.1384 151.271 58.4517 151.438 58.6784 151.771C58.9184 152.091 59.0384 152.485 59.0384 152.951C59.0384 153.765 58.825 154.471 58.3984 155.071C57.985 155.671 57.425 156.171 56.7184 156.571C56.105 156.931 55.3584 157.291 54.4784 157.651L54.4384 159.091C54.4384 160.211 54.7784 160.771 55.4584 160.771C55.765 160.771 56.085 160.698 56.4184 160.551C56.7517 160.391 57.0984 160.205 57.4584 159.991C57.6317 159.898 57.7717 159.851 57.8784 159.851C58.105 159.851 58.2184 159.971 58.2184 160.211C58.2184 160.385 58.0517 160.591 57.7184 160.831C57.3984 161.071 57.0184 161.278 56.5784 161.451C56.1384 161.611 55.7717 161.691 55.4784 161.691ZM54.6384 156.691C54.7584 156.625 55.025 156.485 55.4384 156.271C55.625 156.191 55.8917 156.058 56.2384 155.871C56.865 155.525 57.3317 155.125 57.6384 154.671C57.9584 154.218 58.1184 153.658 58.1184 152.991C58.1184 152.471 57.8984 152.211 57.4584 152.211C57.0717 152.211 56.6184 152.565 56.0984 153.271C55.5517 153.978 55.1117 154.905 54.7784 156.051C54.685 156.371 54.6384 156.585 54.6384 156.691ZM65.818 161.691C65.6047 161.691 65.4847 161.551 65.458 161.271L65.678 160.011C65.8114 159.158 65.9714 158.231 66.158 157.231L66.278 156.511C66.5714 154.818 66.7514 153.831 66.818 153.551C66.9647 152.871 67.0647 152.298 67.118 151.831C67.158 151.698 67.2314 151.585 67.338 151.491C67.458 151.398 67.578 151.351 67.698 151.351C67.858 151.351 67.9714 151.465 68.038 151.691C68.038 151.905 68.0114 152.145 67.958 152.411C67.9047 152.585 67.838 152.951 67.758 153.511L67.418 155.291C68.9114 153.211 70.178 151.925 71.218 151.431C71.458 151.311 71.698 151.251 71.938 151.251C72.1647 151.251 72.4114 151.418 72.678 151.751C72.958 152.085 73.098 152.378 73.098 152.631C73.098 152.845 73.0447 153.011 72.938 153.131C72.8314 153.251 72.7047 153.311 72.558 153.311C72.358 153.311 72.178 153.125 72.018 152.751C72.0047 152.725 71.9714 152.658 71.918 152.551C71.878 152.431 71.8314 152.345 71.778 152.291C71.738 152.225 71.6914 152.191 71.638 152.191C71.5447 152.191 71.358 152.271 71.078 152.431C70.8114 152.578 70.378 152.971 69.778 153.611C69.1914 154.238 68.738 154.771 68.418 155.211C68.538 156.465 68.7914 157.571 69.178 158.531C69.5647 159.491 69.9847 160.145 70.438 160.491C70.678 160.665 70.9047 160.751 71.118 160.751C71.3447 160.751 71.5247 160.691 71.658 160.571C71.8047 160.451 71.918 160.258 71.998 159.991C72.1047 159.725 72.1914 159.585 72.258 159.571C72.298 159.545 72.3714 159.531 72.478 159.531C72.558 159.531 72.6514 159.578 72.758 159.671C72.8514 159.765 72.898 159.938 72.898 160.191C72.898 160.458 72.7847 160.711 72.558 160.951C72.118 161.445 71.678 161.691 71.238 161.691C69.958 161.691 68.9647 160.638 68.258 158.531C67.9514 157.651 67.758 156.898 67.678 156.271C67.638 156.325 67.4914 156.578 67.238 157.031L66.998 157.471C66.7847 158.631 66.578 159.851 66.378 161.131C66.3647 161.278 66.298 161.405 66.178 161.511C66.058 161.631 65.938 161.691 65.818 161.691ZM77.1582 149.611C76.9449 149.611 76.7715 149.551 76.6382 149.431C76.5049 149.298 76.4382 149.151 76.4382 148.991C76.4382 148.725 76.5449 148.498 76.7582 148.311C76.9582 148.138 77.1782 148.051 77.4182 148.051C77.5249 148.051 77.6715 148.098 77.8582 148.191C77.9382 148.285 77.9782 148.438 77.9782 148.651C77.9782 149.291 77.7049 149.611 77.1582 149.611ZM74.9582 161.691C74.5049 161.691 74.2782 161.325 74.2782 160.591C74.2782 160.405 74.3115 160.238 74.3782 160.091C74.4449 159.865 74.5049 159.605 74.5582 159.311L74.8582 157.971L75.2582 156.211C75.3915 155.558 75.5515 154.825 75.7382 154.011C75.7649 153.931 75.7915 153.798 75.8182 153.611C75.9515 153.038 76.0182 152.705 76.0182 152.611V152.411C76.0182 152.305 75.9715 152.085 75.8782 151.751C75.8782 151.591 75.9315 151.445 76.0382 151.311C76.1582 151.178 76.2982 151.111 76.4582 151.111C76.6049 151.111 76.7315 151.211 76.8382 151.411C76.9449 151.611 76.9982 151.831 76.9982 152.071C76.9982 152.338 76.6915 153.778 76.0782 156.391C75.4649 159.005 75.1582 160.391 75.1582 160.551C75.1582 160.698 75.2249 160.771 75.3582 160.771C75.4249 160.771 75.5449 160.685 75.7182 160.511C75.8782 160.351 76.0115 160.271 76.1182 160.271C76.3315 160.271 76.4382 160.405 76.4382 160.671C76.4382 160.831 76.3449 160.991 76.1582 161.151C75.9715 161.311 75.7582 161.438 75.5182 161.531C75.2782 161.638 75.0915 161.691 74.9582 161.691ZM85.0155 161.711C84.6422 161.711 84.3555 161.611 84.1555 161.411C83.9689 161.211 83.8755 160.951 83.8755 160.631C83.8755 160.298 83.9622 159.725 84.1355 158.911L84.5955 156.491C83.6222 157.225 82.7222 157.591 81.8955 157.591C81.2955 157.591 80.8355 157.431 80.5155 157.111C80.4889 157.245 80.4622 157.378 80.4355 157.511C80.4222 157.645 80.4022 157.778 80.3755 157.911C80.3222 158.351 80.2555 158.798 80.1755 159.251C79.9355 160.838 79.5755 161.631 79.0955 161.631C78.8955 161.631 78.7755 161.491 78.7355 161.211C78.8555 160.171 79.1489 158.558 79.6155 156.371C80.0955 154.171 80.4355 152.685 80.6355 151.911C80.6755 151.778 80.7489 151.665 80.8555 151.571C80.9755 151.478 81.0955 151.431 81.2155 151.431C81.3755 151.431 81.4889 151.545 81.5555 151.771C81.5555 151.985 81.4355 152.678 81.1955 153.851C81.0089 154.745 80.8622 155.511 80.7555 156.151C81.0489 156.485 81.5089 156.651 82.1355 156.651C82.7489 156.651 83.4222 156.345 84.1555 155.731C84.3822 155.531 84.5955 155.318 84.7955 155.091L85.0955 153.751C85.3222 152.778 85.5689 152.105 85.8355 151.731C85.9689 151.518 86.1489 151.411 86.3755 151.411C86.6022 151.411 86.7155 151.538 86.7155 151.791V151.891C85.9822 154.411 85.5222 156.238 85.3355 157.371C85.1622 158.345 85.0489 159.111 84.9955 159.671C84.9555 160.111 84.9289 160.351 84.9155 160.391L84.8955 160.651C84.8955 160.731 84.9289 160.771 84.9955 160.771C85.0489 160.771 85.0955 160.751 85.1355 160.711C85.2022 160.671 85.3089 160.651 85.4555 160.651C85.6822 160.651 85.7955 160.771 85.7955 161.011C85.7955 161.478 85.5355 161.711 85.0155 161.711ZM89.3463 169.691C88.7063 169.691 88.1663 169.471 87.7263 169.031C87.2997 168.605 87.0863 168.058 87.0863 167.391C87.0863 166.778 87.2263 166.191 87.5063 165.631C87.7997 165.085 88.2197 164.518 88.7663 163.931C89.233 163.425 89.793 162.898 90.4463 162.351L92.3263 160.791C92.4197 160.458 92.4997 160.105 92.5663 159.731C92.713 159.145 92.8263 158.665 92.9063 158.291C92.3997 159.878 91.7463 160.918 90.9463 161.411C90.693 161.571 90.4463 161.651 90.2063 161.651C89.7397 161.651 89.353 161.465 89.0463 161.091C88.753 160.718 88.6063 160.225 88.6063 159.611C88.6063 158.451 88.8263 157.238 89.2663 155.971C89.7063 154.691 90.293 153.598 91.0263 152.691C91.7863 151.771 92.613 151.311 93.5063 151.311C93.933 151.311 94.3397 151.418 94.7263 151.631C94.8063 151.591 94.893 151.571 94.9863 151.571C95.213 151.571 95.3263 151.678 95.3263 151.891C95.3263 152.118 95.2863 152.331 95.2063 152.531C94.833 153.505 94.2063 156.038 93.3263 160.131C93.5397 159.998 93.7863 159.805 94.0663 159.551C94.133 159.498 94.253 159.398 94.4263 159.251C94.5997 159.091 94.7397 158.978 94.8463 158.911C94.953 158.845 95.0463 158.811 95.1263 158.811C95.353 158.811 95.4663 158.925 95.4663 159.151C95.4663 159.325 95.4197 159.458 95.3263 159.551C94.4997 160.178 93.793 160.698 93.2063 161.111L92.8863 162.991L92.7863 163.491C92.6263 164.331 92.4863 165.031 92.3663 165.591C92.2463 166.165 92.0997 166.711 91.9263 167.231C91.673 167.965 91.3263 168.558 90.8863 169.011C90.4597 169.465 89.9463 169.691 89.3463 169.691ZM90.2663 160.691C90.533 160.691 90.8397 160.511 91.1863 160.151C91.533 159.778 91.8663 159.298 92.1863 158.711C92.5197 158.111 92.7863 157.485 92.9863 156.831C93.293 155.885 93.553 155.011 93.7663 154.211C93.8997 153.745 94.0663 153.131 94.2663 152.371C94.0797 152.198 93.8263 152.111 93.5063 152.111C92.933 152.111 92.333 152.491 91.7063 153.251C91.093 154.011 90.573 154.971 90.1463 156.131C89.733 157.278 89.5263 158.325 89.5263 159.271C89.5263 160.218 89.773 160.691 90.2663 160.691ZM89.1663 168.691C89.4463 168.691 89.6997 168.625 89.9263 168.491C90.153 168.371 90.3663 168.158 90.5663 167.851C90.7663 167.531 90.9663 167.085 91.1663 166.511C91.3663 165.938 91.5263 165.351 91.6463 164.751C91.753 164.298 91.8397 163.885 91.9063 163.511L91.9863 163.071C91.9997 162.965 92.0197 162.851 92.0463 162.731C92.073 162.611 92.093 162.485 92.1063 162.351L92.1663 161.871C90.8597 162.951 89.8463 163.931 89.1263 164.811C88.4197 165.691 88.0663 166.478 88.0663 167.171C88.0663 167.905 88.2263 168.371 88.5463 168.571C88.6797 168.651 88.8863 168.691 89.1663 168.691ZM100.166 149.611C99.9527 149.611 99.7793 149.551 99.646 149.431C99.5127 149.298 99.446 149.151 99.446 148.991C99.446 148.725 99.5527 148.498 99.766 148.311C99.966 148.138 100.186 148.051 100.426 148.051C100.533 148.051 100.679 148.098 100.866 148.191C100.946 148.285 100.986 148.438 100.986 148.651C100.986 149.291 100.713 149.611 100.166 149.611ZM97.966 161.691C97.5127 161.691 97.286 161.325 97.286 160.591C97.286 160.405 97.3193 160.238 97.386 160.091C97.4527 159.865 97.5127 159.605 97.566 159.311L97.866 157.971L98.266 156.211C98.3993 155.558 98.5593 154.825 98.746 154.011C98.7727 153.931 98.7993 153.798 98.826 153.611C98.9593 153.038 99.026 152.705 99.026 152.611V152.411C99.026 152.305 98.9793 152.085 98.886 151.751C98.886 151.591 98.9393 151.445 99.046 151.311C99.166 151.178 99.306 151.111 99.466 151.111C99.6127 151.111 99.7393 151.211 99.846 151.411C99.9527 151.611 100.006 151.831 100.006 152.071C100.006 152.338 99.6993 153.778 99.086 156.391C98.4727 159.005 98.166 160.391 98.166 160.551C98.166 160.698 98.2327 160.771 98.366 160.771C98.4327 160.771 98.5527 160.685 98.726 160.511C98.886 160.351 99.0193 160.271 99.126 160.271C99.3393 160.271 99.446 160.405 99.446 160.671C99.446 160.831 99.3527 160.991 99.166 161.151C98.9793 161.311 98.766 161.438 98.526 161.531C98.286 161.638 98.0993 161.691 97.966 161.691ZM103.443 161.591C102.843 161.591 102.37 161.405 102.023 161.031C101.69 160.658 101.523 160.225 101.523 159.731C101.523 159.291 101.597 158.865 101.743 158.451C101.89 158.025 102.103 157.578 102.383 157.111C102.637 156.685 102.91 156.278 103.203 155.891C103.603 155.358 103.89 154.958 104.063 154.691C104.69 153.758 105.043 152.951 105.123 152.271C105.017 152.031 104.83 151.911 104.563 151.911C104.283 151.911 103.963 152.051 103.603 152.331C103.297 152.585 103.13 152.785 103.103 152.931C103.09 153.051 103.023 153.171 102.903 153.291C102.797 153.411 102.697 153.471 102.603 153.471C102.337 153.471 102.203 153.351 102.203 153.111C102.203 152.778 102.343 152.451 102.623 152.131C102.903 151.798 103.25 151.525 103.663 151.311C104.077 151.098 104.477 150.991 104.863 150.991C105.65 150.991 106.043 151.458 106.043 152.391C106.043 153.151 105.443 154.331 104.243 155.931C103.03 157.545 102.423 158.678 102.423 159.331C102.423 159.798 102.523 160.138 102.723 160.351C102.923 160.551 103.163 160.651 103.443 160.651C103.697 160.651 103.91 160.605 104.083 160.511C104.43 160.338 104.837 160.018 105.303 159.551C105.783 159.071 106.137 158.831 106.363 158.831C106.59 158.831 106.703 158.945 106.703 159.171C106.703 159.318 106.65 159.451 106.543 159.571C105.93 160.265 105.403 160.778 104.963 161.111C104.523 161.431 104.017 161.591 103.443 161.591ZM110.889 149.611C110.675 149.611 110.502 149.551 110.369 149.431C110.235 149.298 110.169 149.151 110.169 148.991C110.169 148.725 110.275 148.498 110.489 148.311C110.689 148.138 110.909 148.051 111.149 148.051C111.255 148.051 111.402 148.098 111.589 148.191C111.669 148.285 111.709 148.438 111.709 148.651C111.709 149.291 111.435 149.611 110.889 149.611ZM108.689 161.691C108.235 161.691 108.009 161.325 108.009 160.591C108.009 160.405 108.042 160.238 108.109 160.091C108.175 159.865 108.235 159.605 108.289 159.311L108.589 157.971L108.989 156.211C109.122 155.558 109.282 154.825 109.469 154.011C109.495 153.931 109.522 153.798 109.549 153.611C109.682 153.038 109.749 152.705 109.749 152.611V152.411C109.749 152.305 109.702 152.085 109.609 151.751C109.609 151.591 109.662 151.445 109.769 151.311C109.889 151.178 110.029 151.111 110.189 151.111C110.335 151.111 110.462 151.211 110.569 151.411C110.675 151.611 110.729 151.831 110.729 152.071C110.729 152.338 110.422 153.778 109.809 156.391C109.195 159.005 108.889 160.391 108.889 160.551C108.889 160.698 108.955 160.771 109.089 160.771C109.155 160.771 109.275 160.685 109.449 160.511C109.609 160.351 109.742 160.271 109.849 160.271C110.062 160.271 110.169 160.405 110.169 160.671C110.169 160.831 110.075 160.991 109.889 161.151C109.702 161.311 109.489 161.438 109.249 161.531C109.009 161.638 108.822 161.691 108.689 161.691Z" fill="white"/>
<path id="Vector 1" d="M0.786663 145.186C49.6009 115.948 98.9494 123.594 117.522 131.072" stroke="white" stroke-linecap="round"/>
</g>
</svg>
